<?xml version="1.0" encoding="UTF-8" standalone="no"?>
<svg xmlns:dc="http://purl.org/dc/elements/1.1/" xmlns:cc="http://creativecommons.org/ns#"
     xmlns:rdf="http://www.w3.org/1999/02/22-rdf-syntax-ns#" xmlns:svg="http://www.w3.org/2000/svg"
     xmlns="http://www.w3.org/2000/svg" xmlns:sodipodi="http://sodipodi.sourceforge.net/DTD/sodipodi-0.dtd"
     xmlns:inkscape="http://www.inkscape.org/namespaces/inkscape" version="1.1" viewBox="0 0 390 75" id="svg3556"
     inkscape:version="0.48.5 r10040" width="100%" height="100%" sodipodi:docname="korn-ferry-cloud-logo.svg"
     inkscape:export-filename="C:\sandbox\content-dictionary-editor\src\assets\images\korn-ferry-cloud-logo.png"
     inkscape:export-xdpi="91.450806" inkscape:export-ydpi="91.450806">
    <defs id="defs3592">
        <inkscape:path-effect effect="spiro" id="path-effect4447" is_visible="true"/>
        <inkscape:path-effect effect="spiro" id="path-effect4443" is_visible="true"/>
        <inkscape:path-effect effect="skeletal" id="path-effect4439" is_visible="true"
                              pattern="M 0,5 C 0,2.24 2.24,0 5,0 7.76,0 10,2.24 10,5 10,7.76 7.76,10 5,10 2.24,10 0,7.76 0,5 z"
                              copytype="single_stretched" prop_scale="1" scale_y_rel="false" spacing="0"
                              normal_offset="0" tang_offset="0" prop_units="false" vertical_pattern="false"
                              fuse_tolerance="0"/>
        <inkscape:path-effect effect="spiro" id="path-effect4437" is_visible="true"/>
        <inkscape:path-effect effect="skeletal" id="path-effect4433" is_visible="true"
                              pattern="m 184.67548,242.81012 0,10 10,-5 z" copytype="single_stretched" prop_scale="1"
                              scale_y_rel="false" spacing="0" normal_offset="0" tang_offset="0" prop_units="false"
                              vertical_pattern="false" fuse_tolerance="0"/>
        <inkscape:path-effect effect="spiro" id="path-effect4431" is_visible="true"/>
        <inkscape:path-effect effect="skeletal" id="path-effect4391" is_visible="true"
                              pattern="m 128.88808,135.91834 0,10 10,-5 z" copytype="single_stretched" prop_scale="1"
                              scale_y_rel="false" spacing="0" normal_offset="0" tang_offset="0" prop_units="false"
                              vertical_pattern="false" fuse_tolerance="0"/>
        <inkscape:path-effect effect="spiro" id="path-effect4389" is_visible="true"/>
        <inkscape:path-effect effect="skeletal" id="path-effect4383" is_visible="true"
                              pattern="M 0,5 C 0,2.24 2.24,0 5,0 7.76,0 10,2.24 10,5 10,7.76 7.76,10 5,10 2.24,10 0,7.76 0,5 z"
                              copytype="single_stretched" prop_scale="1" scale_y_rel="false" spacing="0"
                              normal_offset="0" tang_offset="0" prop_units="false" vertical_pattern="false"
                              fuse_tolerance="0"/>
    </defs>
    <sodipodi:namedview pagecolor="#ffffff" bordercolor="#666666" borderopacity="1" objecttolerance="10"
                        gridtolerance="10" guidetolerance="10" inkscape:pageopacity="0" inkscape:pageshadow="2"
                        inkscape:window-width="1920" inkscape:window-height="1004" id="namedview3590" showgrid="false"
                        showguides="true" inkscape:guide-bbox="true" inkscape:zoom="2.8284271" inkscape:cx="230.66358"
                        inkscape:cy="-12.632561" inkscape:window-x="1916" inkscape:window-y="-4"
                        inkscape:window-maximized="1" inkscape:current-layer="g3560" fit-margin-top="0"
                        fit-margin-left="0" fit-margin-right="0" fit-margin-bottom="0"/>
    <metadata id="metadata3558">
        <rdf:RDF>
            <cc:Work rdf:about="">
                <dc:format>image/svg+xml</dc:format>
                <dc:type rdf:resource="http://purl.org/dc/dcmitype/StillImage"/>
                <dc:title></dc:title>
            </cc:Work>
        </rdf:RDF>
    </metadata>
    <g transform="matrix(0.85345365,0,0,0.85345365,3.6109661,10.811318)" id="g3560" style="fill:#000000">
        <path style="fill:#ffffff;fill-opacity:1;stroke:none"
              d="M 66.671785,-10.482183 C 56.623991,-10.17291 46.870333,-4.7998423 41.260328,3.5417182 37.537203,1.3099286 32.942254,0.566641 28.701064,1.4912261 24.459873,2.4158117 20.612058,5.0157866 18.155676,8.5947167 15.865193,11.931933 14.813534,16.065599 15.226401,20.092119 c 0.412867,4.02652 2.279386,7.888911 5.199463,10.691852 -4.213059,0.365964 -8.299796,2.07206 -11.5340188,4.796687 -3.2342225,2.724627 -5.588088,6.455647 -6.6640995,10.545388 -1.61535057,6.139681 -0.2125226,13.013916 3.6982091,18.015038 3.9107315,5.001122 10.2389942,8.033103 16.5870172,7.945658 l 36.139924,0 0,-62.5033951 0.98863,0 0,62.5033951 24.752369,0 c 6.384739,1.609514 13.499428,0.05334 18.637505,-4.064369 5.13808,-4.11771 8.19893,-10.700698 8.01889,-17.282719 -0.11252,-4.113472 -1.43473,-8.183447 -3.77144,-11.570635 C 104.94213,35.78183 101.60078,33.082112 97.795326,31.51629 101.13481,21.669062 99.247912,10.222287 92.925407,1.9672332 86.812998,-6.0135081 76.719577,-10.791457 66.671785,-10.482183 z m -7.030259,82.568925 -0.98863,0 0,0.329543 0.98863,0 0,-0.329543 z m 6.11486,-56.718078 24.056667,0 0,16.623633 -0.659087,0 C 86.789901,20.681285 84.654841,16.03884 65.756386,16.613606 l 0,-1.244942 z m -22.921573,0.146464 6.114861,0 0,0.952014 -5.821933,0 -14.866068,17.172872 22.445566,32.258635 4.284064,0 0,0.952014 -14.463293,0 L 21.744037,39.864722 42.834813,15.515128 z m 86.120667,6.847179 c -1.60093,2.3e-5 -3.07994,0.314767 -4.46714,0.878782 -1.38722,0.56406 -2.58742,1.353845 -3.62498,2.380036 -1.03757,1.02623 -1.86721,2.229663 -2.45326,3.661593 -0.58607,1.431962 -0.87879,3.023577 -0.87879,4.760071 0,1.736516 0.29272,3.327788 0.87879,4.760071 0.58605,1.432297 1.41569,2.672001 2.45326,3.698209 1.03756,1.026214 2.23776,1.816342 3.62498,2.380036 1.3872,0.563693 2.86621,0.842166 4.46714,0.842166 1.80464,0 3.39302,-0.376827 4.72346,-1.098478 1.33041,-0.72165 2.49991,-1.689008 3.51513,-2.929274 l -1.6111,-1.025246 c -0.72202,0.992489 -1.69461,1.782619 -2.85605,2.380035 -1.16146,0.597421 -2.41831,0.915399 -3.77144,0.915398 -1.33044,1e-6 -2.55913,-0.24743 -3.69821,-0.732318 -1.1391,-0.484884 -2.12036,-1.170879 -2.96589,-2.050492 -0.84554,-0.879605 -1.529,-1.90581 -2.01387,-3.112355 -0.48489,-1.206529 -0.6957,-2.561725 -0.6957,-4.027752 0,-1.466004 0.21081,-2.809843 0.6957,-4.027752 0.48487,-1.217879 1.16833,-2.244084 2.01387,-3.112355 0.84553,-0.868234 1.82679,-1.565586 2.96589,-2.050492 1.13908,-0.484865 2.36777,-0.695681 3.69821,-0.695702 1.35313,2.1e-5 2.60998,0.28104 3.77144,0.878782 1.16144,0.597783 2.13403,1.387568 2.85605,2.380035 l 1.6111,-1.025246 c -0.96979,-1.218218 -2.12539,-2.207602 -3.47852,-2.929274 -1.35316,-0.721629 -2.95543,-1.098455 -4.76007,-1.098478 z m 27.20564,0 c -1.66837,2.3e-5 -3.16164,0.317657 -4.50376,0.915398 -1.34213,0.597784 -2.48348,1.404708 -3.4419,2.453268 -0.95842,1.048599 -1.71496,2.313907 -2.23357,3.734825 -0.51861,1.420948 -0.76893,2.93066 -0.76893,4.576991 0,1.646353 0.25032,3.192681 0.76893,4.613607 0.51861,1.42094 1.27515,2.649289 2.23357,3.698209 0.95842,1.048927 2.09977,1.892466 3.4419,2.489884 1.34212,0.597418 2.83539,0.878782 4.50376,0.878782 1.64633,0 3.15026,-0.281364 4.50376,-0.878782 1.35347,-0.597418 2.52008,-1.440957 3.47851,-2.489884 0.9584,-1.04892 1.67833,-2.277269 2.19696,-3.698209 0.51859,-1.420926 0.80553,-2.967254 0.80555,-4.613607 -2e-5,-1.646331 -0.28696,-3.156043 -0.80555,-4.576991 -0.51863,-1.420918 -1.23856,-2.686226 -2.19696,-3.734825 -0.95843,-1.04856 -2.12504,-1.855484 -3.47851,-2.453268 -1.3535,-0.597741 -2.85743,-0.915375 -4.50376,-0.915398 z m 174.32845,0 c -1.60093,2.3e-5 -3.11656,0.314767 -4.50376,0.878782 -1.38722,0.56406 -2.58742,1.353845 -3.62498,2.380036 -1.03757,1.02623 -1.86721,2.229663 -2.45326,3.661593 -0.58607,1.431962 -0.87879,3.023577 -0.87879,4.760071 0,1.736516 0.29272,3.327788 0.87879,4.760071 0.58605,1.432297 1.41569,2.672001 2.45326,3.698209 1.03756,1.026214 2.23776,1.816342 3.62498,2.380036 1.3872,0.563693 2.90283,0.842166 4.50376,0.842166 1.80463,0 3.3564,-0.376827 4.68684,-1.098478 1.3304,-0.72165 2.49991,-1.689008 3.51513,-2.929274 l -1.6111,-1.025246 c -0.72202,0.992489 -1.658,1.782619 -2.81943,2.380035 -1.16147,0.597421 -2.41832,0.915399 -3.77144,0.915398 -1.33044,1e-6 -2.59575,-0.24743 -3.73483,-0.732318 -1.1391,-0.484884 -2.12036,-1.170879 -2.96589,-2.050492 -0.84554,-0.879605 -1.49238,-1.90581 -1.97726,-3.112355 -0.48489,-1.206529 -0.73231,-2.561725 -0.73231,-4.027752 0,-1.466004 0.24742,-2.809843 0.73231,-4.027752 0.48488,-1.217879 1.13172,-2.244084 1.97726,-3.112355 0.84553,-0.868234 1.82679,-1.565586 2.96589,-2.050492 1.13908,-0.484865 2.40439,-0.695681 3.73483,-0.695702 1.35312,2.1e-5 2.60997,0.28104 3.77144,0.878782 1.16143,0.597783 2.09741,1.387568 2.81943,2.380035 l 1.6111,-1.025246 c -0.96979,-1.218218 -2.12539,-2.207602 -3.47852,-2.929274 -1.35316,-0.721629 -2.91882,-1.098455 -4.72345,-1.098478 z m 49.1752,0 c -1.66838,2.3e-5 -3.16164,0.317657 -4.50376,0.915398 -1.34214,0.597784 -2.52011,1.404708 -3.47852,2.453268 -0.95842,1.048599 -1.67834,2.313907 -2.19695,3.734825 -0.51861,1.420948 -0.76894,2.93066 -0.76894,4.576991 0,1.646353 0.25033,3.192681 0.76894,4.613607 0.51861,1.42094 1.23853,2.649289 2.19695,3.698209 0.95841,1.048927 2.13638,1.892466 3.47852,2.489884 1.34212,0.597418 2.83538,0.878782 4.50376,0.878782 1.64633,0 3.15025,-0.281364 4.50375,-0.878782 1.35347,-0.597418 2.52008,-1.440957 3.47852,-2.489884 0.9584,-1.04892 1.67832,-2.277269 2.19695,-3.698209 0.51859,-1.420926 0.76892,-2.967254 0.76894,-4.613607 -2e-5,-1.646331 -0.25035,-3.156043 -0.76894,-4.576991 -0.51863,-1.420918 -1.23855,-2.686226 -2.19695,-3.734825 -0.95844,-1.04856 -2.12505,-1.855484 -3.47852,-2.453268 -1.3535,-0.597741 -2.85742,-0.915375 -4.50375,-0.915398 z m -202.81565,0.402775 0,22.555414 1.90403,0 0,-19.406444 14.20698,19.406444 1.90403,0 0,-22.555414 -1.94064,0 0,19.113516 -14.13375,-19.113516 -1.94065,0 z m 26.94933,0 0,1.757565 7.39642,0 0,20.797849 1.94064,0 0,-20.797849 7.39642,0 0,-1.757565 -16.73348,0 z m 25.66777,0 0,22.555414 14.31682,0 0,-1.757565 -12.37618,0 0,-8.934287 12.15649,0 0,-1.757565 -12.15649,0 0,-8.348432 12.37618,0 0,-1.757565 -14.31682,0 z m 24.05666,0 0,22.555414 1.90403,0 0,-19.406444 14.20698,19.406444 1.90403,0 0,-22.555414 -1.90403,0 0,19.113516 -14.17036,-19.113516 -1.94065,0 z m 26.94933,0 0,1.757565 7.39642,0 0,20.797849 1.94064,0 0,-20.797849 7.39642,0 0,-1.757565 -16.73348,0 z m 67.08038,0 0,22.555414 12.8522,0 0,-1.757565 -10.91155,0 0,-20.797849 -1.94065,0 z m 52.76356,0 0,13.877438 c 0,1.398573 0.21384,2.655072 0.58586,3.771441 0.372,1.116379 0.90335,2.077956 1.64771,2.856043 0.74437,0.778091 1.68914,1.365733 2.78281,1.79418 1.09365,0.428449 2.36475,0.659087 3.80806,0.659087 2.90931,0 5.07687,-0.829636 6.55425,-2.453267 1.47735,-1.623627 2.23355,-3.830345 2.23357,-6.627484 l 0,-13.877438 -1.97726,0 0,13.840822 c -2e-5,2.300207 -0.57051,4.122461 -1.72095,5.419158 -1.15045,1.296704 -2.83416,1.940645 -5.08961,1.940644 -2.23276,1e-6 -3.92817,-0.64394 -5.08961,-1.940644 -1.16146,-1.296697 -1.75757,-3.118951 -1.75757,-5.419158 l 0,-13.840822 -1.97726,0 z m 28.15765,0 0,22.555414 7.21334,0 c 1.7592,0 3.32522,-0.292376 4.72345,-0.878783 1.39821,-0.586405 2.59586,-1.401793 3.58837,-2.416651 0.99246,-1.014851 1.7402,-2.212502 2.27018,-3.588361 0.52996,-1.375845 0.80553,-2.837722 0.80555,-4.393912 -2e-5,-1.556168 -0.27559,-2.992785 -0.80555,-4.357296 -0.52998,-1.364479 -1.27772,-2.562131 -2.27018,-3.588361 -0.99251,-1.026192 -2.19016,-1.855828 -3.58837,-2.453268 -1.39823,-0.597396 -2.96425,-0.87876 -4.72345,-0.878782 l -7.21334,0 z m -272.31268,1.391406 c 1.35313,2.1e-5 2.60418,0.236096 3.69821,0.732318 1.09399,0.496264 2.0047,1.170901 2.78281,2.050492 0.77807,0.879627 1.40233,1.942448 1.8308,3.14897 0.42842,1.206553 0.62244,2.51123 0.62247,3.954521 -3e-5,1.421289 -0.19405,2.747991 -0.62247,3.954521 -0.42847,1.206544 -1.05273,2.258353 -1.8308,3.14897 -0.77811,0.890626 -1.68882,1.590868 -2.78281,2.087108 -1.09403,0.496245 -2.34508,0.732319 -3.69821,0.732318 -1.37518,1e-6 -2.60422,-0.236073 -3.69821,-0.732318 -1.09401,-0.49624 -2.04134,-1.196482 -2.81943,-2.087108 -0.77809,-0.890617 -1.37709,-1.942426 -1.79418,-3.14897 -0.41709,-1.20653 -0.62247,-2.533232 -0.62247,-3.954521 0,-1.443291 0.20538,-2.747968 0.62247,-3.954521 0.41709,-1.206522 1.01609,-2.269343 1.79418,-3.14897 0.77809,-0.879591 1.72542,-1.554228 2.81943,-2.050492 1.09399,-0.496222 2.32303,-0.732297 3.69821,-0.732318 z m 223.50365,0 c 1.35312,2.1e-5 2.56756,0.236096 3.66159,0.732318 1.09399,0.496264 2.04132,1.170901 2.81942,2.050492 0.77808,0.879627 1.36571,1.942448 1.79419,3.14897 0.42842,1.206553 0.65906,2.51123 0.65908,3.954521 -2e-5,1.421289 -0.23066,2.747991 -0.65908,3.954521 -0.42848,1.206544 -1.01611,2.258353 -1.79419,3.14897 -0.7781,0.890626 -1.72543,1.590868 -2.81942,2.087108 -1.09403,0.496245 -2.30847,0.732319 -3.66159,0.732318 -1.37518,1e-6 -2.60422,-0.236073 -3.69821,-0.732318 -1.09402,-0.49624 -2.04135,-1.196482 -2.81943,-2.087108 -0.7781,-0.890617 -1.3771,-1.942426 -1.79418,-3.14897 -0.41709,-1.20653 -0.62247,-2.533232 -0.62247,-3.954521 0,-1.443291 0.20538,-2.747968 0.62247,-3.954521 0.41708,-1.206522 1.01608,-2.269343 1.79418,-3.14897 0.77808,-0.879591 1.72541,-1.554228 2.81943,-2.050492 1.09399,-0.496222 2.32303,-0.732297 3.69821,-0.732318 z m 50.74968,0.366159 5.27269,0 c 1.48872,2.1e-5 2.81831,0.23644 3.99114,0.732318 1.1728,0.49592 2.13981,1.181914 2.92927,2.050493 0.78943,0.868614 1.37708,1.877681 1.79418,3.039122 0.41707,1.16147 0.65906,2.390507 0.65909,3.698209 -3e-5,1.331126 -0.24202,2.584733 -0.65909,3.734825 -0.4171,1.150107 -0.9934,2.145615 -1.79418,3.002506 -0.80082,0.856901 -1.80444,1.554252 -2.96589,2.050492 -1.16147,0.496245 -2.4658,0.732321 -3.95452,0.732319 l -5.27269,0 0,-19.040284 z m -352.90435,5.089614 0.952015,0 0,22.189255 -1.135094,0 c 0,0 1.092787,-10.325693 -11.79033,-10.325693 l -0.03662,-1.391405 C 78.483475,39.988291 77.5101,29.612261 77.5101,29.612261 z"
              id="path4445" inkscape:connector-curvature="0"/>
    </g>
</svg>
